<svg width="111" height="30" viewBox="0 0 111 30" fill="none" xmlns="http://www.w3.org/2000/svg">
<g filter="url(#filter0_d_0_8)">
<path fill-rule="evenodd" clip-rule="evenodd" d="M9.13165 13.1602L8.13638 15.0336V21.3273H4.91638V0.83637H8.13638V9.76455L12.3517 0.83637H15.5717L11.0929 9.96946L15.5717 21.3273H12.2638L9.13165 13.1602ZM20.1173 16.6144C20.1173 17.356 20.2685 17.878 20.571 18.1805C20.8735 18.4829 21.2784 18.6342 21.7858 18.6342C22.2932 18.6342 22.6982 18.4829 23.0007 18.1805C23.3031 17.878 23.4544 17.356 23.4544 16.6144V5.54928C23.4544 4.8077 23.3031 4.28567 23.0007 3.98319C22.6982 3.6807 22.2932 3.52946 21.7858 3.52946C21.2784 3.52946 20.8735 3.6807 20.571 3.98319C20.2685 4.28567 20.1173 4.8077 20.1173 5.54928V16.6144ZM16.8973 5.75419C16.8973 4.09539 17.3169 2.82204 18.156 1.9341C18.9952 1.04615 20.2051 0.602188 21.7858 0.602188C23.3666 0.602188 24.5765 1.04615 25.4157 1.9341C26.2548 2.82204 26.6744 4.09539 26.6744 5.75419V16.4095C26.6744 18.0683 26.2548 19.3416 25.4157 20.2296C24.5765 21.1175 23.3666 21.5615 21.7858 21.5615C20.2051 21.5615 18.9952 21.1175 18.156 20.2296C17.3169 19.3416 16.8973 18.0683 16.8973 16.4095V5.75419ZM31.9518 6.48601V21.3273H29.0538V0.83637H33.0935L36.4013 13.1016V0.83637H39.27V21.3273H35.9622L31.9518 6.48601ZM41.5031 5.75419C41.5031 4.09539 41.8983 2.82204 42.6887 1.9341C43.479 1.04615 44.6646 0.602188 46.2453 0.602188C47.826 0.602188 49.0116 1.04615 49.8019 1.9341C50.5923 2.82204 50.9875 4.09539 50.9875 5.75419V6.39819H47.9431V5.54928C47.9431 4.8077 47.8016 4.28567 47.5187 3.98319C47.2357 3.6807 46.8405 3.52946 46.3331 3.52946C45.8257 3.52946 45.4305 3.6807 45.1476 3.98319C44.8646 4.28567 44.7231 4.8077 44.7231 5.54928C44.7231 6.25183 44.8792 6.87143 45.1915 7.4081C45.5037 7.94477 45.894 8.45216 46.3624 8.93028C46.8307 9.4084 47.3333 9.88652 47.8699 10.3646C48.4066 10.8428 48.9091 11.3648 49.3775 11.9307C49.8458 12.4967 50.2361 13.1407 50.5484 13.8627C50.8606 14.5848 51.0167 15.4337 51.0167 16.4095C51.0167 18.0683 50.6118 19.3416 49.8019 20.2296C48.992 21.1175 47.7968 21.5615 46.216 21.5615C44.6353 21.5615 43.44 21.1175 42.6301 20.2296C41.8202 19.3416 41.4153 18.0683 41.4153 16.4095V15.1507H44.4597V16.6144C44.4597 17.3559 44.6109 17.8731 44.9134 18.1658C45.2159 18.4586 45.6208 18.6049 46.1282 18.6049C46.6356 18.6049 47.0405 18.4586 47.343 18.1658C47.6455 17.8731 47.7967 17.3559 47.7967 16.6144C47.7967 15.9118 47.6406 15.2922 47.3284 14.7556C47.0161 14.2189 46.6258 13.7115 46.1575 13.2334C45.6891 12.7552 45.1866 12.2771 44.6499 11.799C44.1133 11.3209 43.6107 10.7989 43.1424 10.2329C42.674 9.66697 42.2837 9.02298 41.9715 8.30092C41.6592 7.57885 41.5031 6.72995 41.5031 5.75419ZM52.2546 0.83637H62.2073V3.76364H58.8409V21.3273H55.6209V3.76364H52.2546V0.83637ZM70.6755 21.3273C70.6364 21.1907 70.5974 21.0638 70.5584 20.9467C70.5193 20.8296 70.4852 20.6833 70.4559 20.5076C70.4267 20.332 70.4071 20.1076 70.3974 19.8344C70.3876 19.5612 70.3827 19.2196 70.3827 18.8098V15.5898C70.3827 14.6336 70.2169 13.9603 69.8851 13.57C69.5533 13.1797 69.0167 12.9846 68.2751 12.9846H67.1627V21.3273H63.9427V0.83637H68.802C70.4803 0.83637 71.6951 1.22667 72.4465 2.00728C73.1978 2.78789 73.5735 3.96854 73.5735 5.54928V7.15928C73.5735 9.26693 72.8709 10.6525 71.4658 11.316C72.2855 11.6478 72.8465 12.1893 73.149 12.9406C73.4515 13.692 73.6027 14.6043 73.6027 15.6776V18.8391C73.6027 19.3465 73.6223 19.7905 73.6613 20.171C73.7003 20.5516 73.7979 20.937 73.954 21.3273H70.6755ZM67.1627 3.76364V10.0573H68.4215C69.0264 10.0573 69.4997 9.90116 69.8412 9.58892C70.1827 9.27667 70.3535 8.71074 70.3535 7.8911V5.87128C70.3535 5.1297 70.2217 4.59304 69.9583 4.26128C69.6948 3.92952 69.2801 3.76364 68.7142 3.76364H67.1627ZM79.1144 0.83637V16.6436C79.1144 17.3852 79.2656 17.9024 79.5681 18.1951C79.8706 18.4878 80.2755 18.6342 80.7829 18.6342C81.2903 18.6342 81.6953 18.4878 81.9977 18.1951C82.3002 17.9024 82.4515 17.3852 82.4515 16.6436V0.83637H85.4958V16.4387C85.4958 18.0975 85.0909 19.3709 84.281 20.2588C83.4711 21.1468 82.2758 21.5907 80.6951 21.5907C79.1144 21.5907 77.9191 21.1468 77.1092 20.2588C76.2993 19.3709 75.8944 18.0975 75.8944 16.4387V0.83637H79.1144ZM96.8202 0.83637H106.773V3.76364H103.407V21.3273H100.187V3.76364H96.8202V0.83637Z" fill="white"/>
</g>
<g filter="url(#filter1_d_0_8)">
<path fill-rule="evenodd" clip-rule="evenodd" d="M87.0254 11.4851L95.389 1.03058V21.9397L87.0254 11.4851Z" fill="#00A4E5"/>
<path fill-rule="evenodd" clip-rule="evenodd" d="M87.0254 11.4851L95.389 1.03058V21.9397L87.0254 11.4851Z" stroke="#979797"/>
</g>
<defs>
<filter id="filter0_d_0_8" x="0.916382" y="0.602188" width="109.857" height="28.9885" filterUnits="userSpaceOnUse" color-interpolation-filters="sRGB">
<feFlood flood-opacity="0" result="BackgroundImageFix"/>
<feColorMatrix in="SourceAlpha" type="matrix" values="0 0 0 0 0 0 0 0 0 0 0 0 0 0 0 0 0 0 127 0" result="hardAlpha"/>
<feOffset dy="4"/>
<feGaussianBlur stdDeviation="2"/>
<feComposite in2="hardAlpha" operator="out"/>
<feColorMatrix type="matrix" values="0 0 0 0 0 0 0 0 0 0 0 0 0 0 0 0 0 0 0.25 0"/>
<feBlend mode="normal" in2="BackgroundImageFix" result="effect1_dropShadow_0_8"/>
<feBlend mode="normal" in="SourceGraphic" in2="effect1_dropShadow_0_8" result="shape"/>
</filter>
<filter id="filter1_d_0_8" x="83.0254" y="1.03058" width="16.3636" height="28.9091" filterUnits="userSpaceOnUse" color-interpolation-filters="sRGB">
<feFlood flood-opacity="0" result="BackgroundImageFix"/>
<feColorMatrix in="SourceAlpha" type="matrix" values="0 0 0 0 0 0 0 0 0 0 0 0 0 0 0 0 0 0 127 0" result="hardAlpha"/>
<feOffset dy="4"/>
<feGaussianBlur stdDeviation="2"/>
<feComposite in2="hardAlpha" operator="out"/>
<feColorMatrix type="matrix" values="0 0 0 0 0 0 0 0 0 0 0 0 0 0 0 0 0 0 0.25 0"/>
<feBlend mode="normal" in2="BackgroundImageFix" result="effect1_dropShadow_0_8"/>
<feBlend mode="normal" in="SourceGraphic" in2="effect1_dropShadow_0_8" result="shape"/>
</filter>
</defs>
</svg>
